HIERARCHY
ROOT Hips
{
  OFFSET 52.8259 95.1649 -25.202
  CHANNELS 6 Xposition Yposition Zposition Zrotation Xrotation Yrotation
  JOINT RightUpLeg
  {
    OFFSET -9 6.86154e-007 -3.19532e-009
    CHANNELS 6 Xposition Yposition Zposition Zrotation Xrotation Yrotation
    JOINT RightLowLeg
    {
      OFFSET 0.575 -51.4311 3.90177
      CHANNELS 6 Xposition Yposition Zposition Zrotation Xrotation Yrotation
      JOINT RightFoot
      {
        OFFSET -7.46079e-007 -43.5882 -3.90177
        CHANNELS 6 Xposition Yposition Zposition Zrotation Xrotation Yrotation
        End Site
        {
          OFFSET 4.66716e-007 -6.93413 15.0046
        }
      }
    }
  }
  JOINT Chest
  {
    OFFSET 1.23234e-007 14.8421 1.27327e-009
    CHANNELS 6 Xposition Yposition Zposition Zrotation Xrotation Yrotation
    JOINT LeftCollar
    {
      OFFSET 6.64893 27.3161 3.27471
      CHANNELS 6 Xposition Yposition Zposition Zrotation Xrotation Yrotation
      JOINT LeftUpArm
      {
        OFFSET 10.8584 2.41798 -0.945791
        CHANNELS 6 Xposition Yposition Zposition Zrotation Xrotation Yrotation
        JOINT LeftLowArm
        {
          OFFSET 3.77631 -24.5904 -1.70468
          CHANNELS 6 Xposition Yposition Zposition Zrotation Xrotation Yrotation
          JOINT LeftHand
          {
            OFFSET 1.01026 -21.1231 1.74131
            CHANNELS 6 Xposition Yposition Zposition Zrotation Xrotation Yrotation
            End Site
            {
              OFFSET 1.17583e-006 -9.81266 -2.89439e-008
            }
          }
        }
      }
    }
    JOINT RightCollar
    {
      OFFSET -6.11406 27.2248 4.23427
      CHANNELS 6 Xposition Yposition Zposition Zrotation Xrotation Yrotation
      JOINT RightUpArm
      {
        OFFSET -10.4566 2.3285 -0.910794
        CHANNELS 6 Xposition Yposition Zposition Zrotation Xrotation Yrotation
        JOINT RightLowArm
        {
          OFFSET -3.86856 -25.191 -1.74633
          CHANNELS 6 Xposition Yposition Zposition Zrotation Xrotation Yrotation
          JOINT RightHand
          {
            OFFSET -1.04759 -20.6242 1.75213
            CHANNELS 6 Xposition Yposition Zposition Zrotation Xrotation Yrotation
            End Site
            {
              OFFSET -2.03487e-006 -9.50367 -4.31372e-006
            }
          }
        }
      }
    }
    JOINT Neck
    {
      OFFSET 0.51659 29.8236 6.51843
      CHANNELS 6 Xposition Yposition Zposition Zrotation Xrotation Yrotation
      JOINT Head
      {
        OFFSET 1.16803e-007 7.47049 6.44171e-007
        CHANNELS 6 Xposition Yposition Zposition Zrotation Xrotation Yrotation
        End Site
        {
          OFFSET -4.32676e-008 16.2908 2.16786e-007
        }
      }
    }
  }
  JOINT LeftUpLeg
  {
    OFFSET 9 -3.38008e-006 -5.22994e-009
    CHANNELS 6 Xposition Yposition Zposition Zrotation Xrotation Yrotation
    JOINT LeftLowLeg
    {
      OFFSET -0.575 -51.431 3.90177
      CHANNELS 6 Xposition Yposition Zposition Zrotation Xrotation Yrotation
      JOINT LeftFoot
      {
        OFFSET 2.13082e-007 -43.5882 -3.90177
        CHANNELS 6 Xposition Yposition Zposition Zrotation Xrotation Yrotation
        End Site
        {
          OFFSET 7.44796e-007 -6.93413 15.0046
        }
      }
    }
  }
}
MOTION
Frames:	4
Frame Time:	0.0333333
54.7404 98.4341 -14.7613 -0.162916 -6.73936 2.75743 -9 6.86154e-007 -3.1967e-009 -13.505 2.02817 -17.4742 0.575 -51.4311 3.90177 -2.91323 19.2917 10.2672 -7.46079e-007 -43.5882 -3.90177 -6.32528 -6.74512 0.293452 1.23234e-007 14.8421 1.27327e-009 -18.5057 4.96745 6.31696 6.64893 27.3161 3.27471 -2.94784 5.93879 -4.20517 10.8584 2.41798 -0.945791 133.394 -6.51314 54.8981 3.77631 -24.5904 -1.70468 19.6741 -13.0308 8.41694 1.01026 -21.1231 1.74131 -2.11465 -4.81857 -0.980234 -6.11406 27.2248 4.23427 -1.96452 7.32629 3.42623 -10.4566 2.3285 -0.910794 -25.2449 -14.3619 42.9802 -3.86856 -25.191 -1.74633 5.43119 -75.7486 46.7666 -1.04759 -20.6242 1.75213 5.27806 -1.12106 0.941167 0.51659 29.8236 6.51843 -10.4872 -4.36924 17.7281 1.16803e-007 7.47049 6.44171e-007 1.59905 2.6955 13.9488 9 -3.38008e-006 -5.22994e-009 12.7967 -1.51701 11.0279 -0.575 -51.431 3.90177 -1.5115 23.0715 -24.4407 2.13082e-007 -43.5882 -3.90177 7.58758 -5.88604 -0.396124 
54.7124 98.3951 -14.7661 -0.117211 -6.79702 2.9231 -9 6.86154e-007 -3.1967e-009 -13.5354 2.05017 -17.5073 0.575 -51.4311 3.90177 -2.93591 19.4987 10.1946 -7.46079e-007 -43.5882 -3.90177 -6.3506 -6.88456 0.288515 1.23234e-007 14.8421 1.27327e-009 -18.2449 5.65432 5.67876 6.64893 27.3161 3.27471 -2.94784 5.93879 -4.20517 10.8584 2.41798 -0.945791 131.206 -6.41481 56.1644 3.77631 -24.5904 -1.70468 19.7173 -13.629 4.59898 1.01026 -21.1231 1.74131 10.0424 -0.656323 0.862692 -6.11406 27.2248 4.23427 -1.96452 7.32629 3.42623 -10.4566 2.3285 -0.910794 -25.5063 -14.7392 42.4011 -3.86856 -25.191 -1.74633 7.83399 -76.7422 48.2507 -1.04759 -20.6242 1.75213 5.05999 -1.32354 0.934538 0.51659 29.8236 6.51843 -10.409 -4.18363 17.0047 1.16803e-007 7.47049 6.44171e-007 1.46834 2.75773 13.2936 9 -3.38008e-006 -5.22994e-009 12.7963 -1.53785 11.0188 -0.575 -51.431 3.90177 -1.51557 23.1484 -24.5507 2.13082e-007 -43.5882 -3.90177 7.68353 -5.98048 -0.394924 
54.7075 98.3735 -14.7797 -0.121753 -6.77668 2.88515 -9 6.86154e-007 -3.1967e-009 -13.5518 1.96758 -17.5167 0.575 -51.4311 3.90177 -2.94577 19.5996 10.1953 -7.46079e-007 -43.5882 -3.90177 -6.38356 -6.9754 0.285746 1.23234e-007 14.8421 1.27327e-009 -17.3812 6.40172 4.73819 6.64893 27.3161 3.27471 -2.94784 5.93879 -4.20517 10.8584 2.41798 -0.945791 127.943 -6.38399 57.8566 3.77631 -24.5904 -1.70468 19.5599 -14.3241 2.58917 1.01026 -21.1231 1.74131 22.631 5.44382 1.7348 -6.11406 27.2248 4.23427 -1.96452 7.32629 3.42623 -10.4566 2.3285 -0.910794 -25.83 -15.3996 41.5252 -3.86856 -25.191 -1.74633 12.3535 -78.4329 51.3182 -1.04759 -20.6242 1.75213 4.98676 -0.889775 0.877954 0.51659 29.8236 6.51843 -10.2637 -4.01612 15.9479 1.16803e-007 7.47049 6.44171e-007 1.00876 2.95577 12.4012 9 -3.38008e-006 -5.22994e-009 12.7974 -1.57124 11.0144 -0.575 -51.431 3.90177 -1.50382 23.1844 -24.456 2.13082e-007 -43.5882 -3.90177 7.72047 -6.06075 -0.391673 
54.719 98.3632 -14.8031 -0.188318 -6.68501 2.74036 -9 6.86154e-007 -3.1967e-009 -13.5161 1.81091 -17.4846 0.575 -51.4311 3.90177 -2.94227 19.6087 10.2477 -7.46079e-007 -43.5882 -3.90177 -6.39509 -6.98086 0.285851 1.23234e-007 14.8421 1.27327e-009 -15.5858 7.09945 3.40123 6.64893 27.3161 3.27471 -2.94784 5.93879 -4.20517 10.8584 2.41798 -0.945791 123.023 -6.26671 58.8584 3.77631 -24.5904 -1.70468 19.0612 -14.8489 2.74132 1.01026 -21.1231 1.74131 32.0837 9.88349 1.55637 -6.11406 27.2248 4.23427 -1.96452 7.32629 3.42623 -10.4566 2.3285 -0.910794 -26.1026 -16.4202 40.4954 -3.86856 -25.191 -1.74633 20.646 -80.323 57.5404 -1.04759 -20.6242 1.75213 4.61187 -0.483834 0.785368 0.51659 29.8236 6.51843 -9.82262 -3.61792 14.5531 1.16803e-007 7.47049 6.44171e-007 0.0787357 2.86033 11.3673 9 -3.38008e-006 -5.22994e-009 12.8521 -1.62719 11.0777 -0.575 -51.431 3.90177 -1.53684 23.1647 -24.3011 2.13082e-007 -43.5882 -3.90177 7.74583 -6.1393 -0.387948 
